<?xml version="1.0" encoding="UTF-8"?>
<svg id="Layer_2" data-name="Layer 2" xmlns="http://www.w3.org/2000/svg" viewBox="0 0 740.99 101.21">
  <defs>
    <style>
      .cls-1 {
        fill: none;
        stroke: #fff;
      }

      .cls-1, .cls-2 {
        stroke-miterlimit: 10;
      }

      .cls-3 {
        fill: #fff;
      }

      .cls-3, .cls-4 {
        stroke-width: 0px;
      }

      .cls-2 {
        fill: #ce7500;
        stroke: #ce7500;
        stroke-width: 1.08px;
      }

      .cls-4 {
        fill: #300;
      }
    </style>
  </defs>
  <g id="Layer_1-2" data-name="Layer 1">
    <g>
      <g>
        <rect class="cls-4" x="0" width="101.21" height="101.21" rx="11.55" ry="11.55"/>
        <g>
          <path class="cls-2" d="m35.32,55.87l-4.52,13.7h-5.82l14.8-43.56h6.79l14.87,43.56h-6.01l-4.65-13.7h-15.45Zm14.28-4.4l-4.27-12.54c-.97-2.84-1.62-5.43-2.26-7.95h-.13c-.65,2.59-1.36,5.24-2.2,7.89l-4.27,12.6h13.12Z"/>
          <path class="cls-2" d="m73.78,29.5c.06,1.94-1.36,3.49-3.62,3.49-2,0-3.43-1.55-3.43-3.49s1.49-3.56,3.56-3.56,3.49,1.55,3.49,3.56Zm-6.33,40.07v-31.28h5.69v31.28h-5.69Z"/>
        </g>
      </g>
      <g>
        <polygon class="cls-1" points="740.49 65.94 159.9 65.94 159.9 39.39 740.49 39.39 740.49 51.88 740.49 65.94"/>
        <polygon class="cls-3" points="159.96 66.24 159.96 39.68 523.31 39.68 523.26 66.24 159.96 66.24"/>
      </g>
    </g>
  </g>
</svg>