<?xml version="1.0" encoding="UTF-8"?>
<svg id="Layer_2" data-name="Layer 2" xmlns="http://www.w3.org/2000/svg" viewBox="0 0 739.62 79.94">
  <defs>
    <style>
      .cls-1 {
        fill: none;
        stroke: #71ccff;
        stroke-miterlimit: 10;
      }

      .cls-2 {
        fill: #265787;
      }

      .cls-2, .cls-3, .cls-4, .cls-5, .cls-6 {
        stroke-width: 0px;
      }

      .cls-3 {
        fill: #ffa233;
      }

      .cls-4 {
        fill: #ea7600;
      }

      .cls-5 {
        fill: #fff;
      }

      .cls-6 {
        fill: #71ccff;
      }
    </style>
  </defs>
  <g id="Layer_1-2" data-name="Layer 1">
    <g>
      <path class="cls-4" d="m98.46,49.4c0,.27,0,.54,0,.8-.06.66-.08,1.33-.18,1.98-.12.83-.29,1.65-.46,2.47-.11.54-.22,1.09-.36,1.62-.16.57-.35,1.13-.55,1.68-.29.81-.57,1.62-.92,2.4-1.26,2.85-2.94,5.44-5,7.78-3.47,3.95-7.66,6.89-12.49,8.94-1.9.81-3.86,1.45-5.88,1.9-1.06.24-2.14.42-3.22.6-.49.09-1,.12-1.5.18-.09,0-.17.01-.26.02-.05,0-.09.01-.14.02-.09,0-.17.02-.26.03-.08,0-.16,0-.23.01-.11,0-.22.01-.33.02-.11.01-.21.03-.32.04-.29,0-.58.02-.87.02-.87,0-1.73,0-2.6,0-.29,0-.58-.02-.87-.02-.11-.01-.21-.03-.32-.04-.11,0-.22-.01-.33-.02-.08,0-.16-.01-.23-.02-.09-.01-.18-.02-.27-.03-.04,0-.08-.01-.12-.02-.09,0-.17-.01-.26-.02-.69-.02-1.37-.13-2.04-.24-.67-.11-1.34-.21-2.01-.33-.32-.06-.64-.15-.95-.24-.86-.24-1.73-.45-2.58-.73-3.81-1.23-7.34-3.01-10.54-5.44-3.62-2.74-6.58-6.07-8.78-10.05-.46-.83-.9-1.66-1.27-2.53-.42-.98-.79-1.99-1.1-3.01-.29-.95-.47-1.93-.69-2.91-.14-.63-.24-1.27-.25-1.92-.01-.09-.02-.17-.03-.26-.01-.18-.03-.37-.04-.55-.01-.03-.03-.07-.04-.1,0-.18,0-.36,0-.54.01-.14.02-.28.03-.43.06-.76.11-1.53.17-2.37-.15.11-.25.18-.35.26-3.39,2.78-6.79,5.56-10.18,8.35-2.88,2.36-5.75,4.71-8.63,7.07-1.09.89-2.3,1.54-3.68,1.87-.46.11-.93.23-1.41.23-.32,0-.65,0-.97,0-1.52-.11-2.84-.67-3.87-1.82-.54-.6-.94-1.29-1.11-2.09-.05-.23-.1-.46-.16-.69.02-.03.04-.06.06-.08-.01-.03-.02-.06-.03-.09,0-.34,0-.69,0-1.03,0-.04,0-.08,0-.11,0-.07,0-.14.01-.21,0-.03,0-.06,0-.09.08-.62.23-1.23.5-1.78.39-.81.84-1.59,1.47-2.24.45-.46.91-.92,1.42-1.31,6.08-4.66,12.16-9.31,18.25-13.97,5.64-4.31,11.27-8.62,16.91-12.93.09-.07.17-.16.26-.24-.09-.02-.18-.07-.27-.07-.83,0-1.66,0-2.49,0-.28,0-.56.02-.84.03-2.79,0-5.58.02-8.37.03-.46,0-.91,0-1.37,0-.03,0-.06,0-.09,0-.43,0-.85,0-1.28,0-.03,0-.06,0-.09,0-.45,0-.91,0-1.36,0-.09-.02-.18-.05-.27-.05-1,0-2.01,0-3.01,0-.09,0-.18.03-.27.05-.15,0-.3-.01-.45-.02-.09,0-.18-.02-.27-.02-1.33-.12-2.48-.62-3.39-1.62-.52-.57-.82-1.24-.89-2.01,0-.25,0-.5-.01-.74.08-1.38.8-2.43,1.76-3.33,1.12-1.07,2.49-1.68,4-1.95.42-.07.85-.08,1.27-.12.03,0,.06,0,.09,0,.72,0,1.45,0,2.17,0,.83,0,1.67,0,2.5,0,1.61,0,3.22,0,4.83,0,6.12,0,12.24,0,18.37-.01,3.19,0,6.39-.02,9.58-.03.46,0,.92,0,1.39,0,.04,0,.08-.02.17-.04-.07-.07-.12-.12-.18-.16-4.06-3.3-8.12-6.6-12.18-9.91-.37-.3-.73-.63-1.04-1-.6-.71-.83-1.56-.71-2.47.1-.71.46-1.33.94-1.86.88-.99,2.01-1.54,3.28-1.81.22-.05.45-.06.68-.09.54,0,1.08,0,1.62,0,1.12.07,2.11.47,3,1.14,1.54,1.17,3.07,2.36,4.6,3.53,8.64,6.64,17.28,13.28,25.93,19.92,3.62,2.78,6.58,6.11,8.75,10.13.39.73.72,1.5,1.07,2.26.24.54.49,1.07.69,1.63.23.64.42,1.29.6,1.94.24.87.47,1.74.66,2.61.11.51.15,1.04.22,1.57.06.42.12.84.18,1.25,0,.06.02.12.03.19,0,.13.02.26.02.39,0,0-.02.02-.02.03,0,.02.02.04.02.06,0,.13.01.26.02.4,0,.27,0,.54,0,.8,0,.51,0,1.03,0,1.54Zm-33.96,15.71c.82-.07,1.86-.15,2.9-.24,1.01-.09,1.99-.32,2.96-.59,3.26-.91,6.18-2.47,8.69-4.74,2.67-2.42,4.54-5.34,5.53-8.82.26-.93.42-1.87.52-2.83.21-1.99.07-3.96-.4-5.9-.27-1.11-.65-2.18-1.13-3.21-1.25-2.72-3.09-4.99-5.42-6.85-2.56-2.05-5.46-3.41-8.66-4.13-1.08-.24-2.18-.4-3.27-.52-.66-.08-1.34-.09-2.01-.08-.72.01-1.44.07-2.16.15-.8.09-1.6.18-2.39.33-1.68.33-3.29.88-4.84,1.61-4.02,1.91-7.19,4.74-9.3,8.7-.45.85-.88,1.72-1.16,2.63-.38,1.2-.68,2.43-.8,3.7-.15,1.74-.14,3.47.21,5.18.23,1.11.53,2.2.97,3.25,1.22,2.91,3.06,5.34,5.46,7.36,2.01,1.7,4.29,2.93,6.76,3.79.77.27,1.56.51,2.37.65.73.13,1.46.31,2.19.39.92.1,1.85.11,3,.18Z"/>
      <path class="cls-5" d="m64.5,65.1c-1.15-.06-2.08-.08-3-.18-.74-.08-1.46-.26-2.19-.39-.81-.14-1.6-.38-2.37-.65-2.47-.87-4.75-2.1-6.76-3.79-2.4-2.02-4.25-4.46-5.46-7.36-.44-1.05-.75-2.14-.97-3.25-.35-1.71-.37-3.44-.21-5.18.11-1.27.42-2.5.8-3.7.28-.91.71-1.79,1.16-2.63,2.11-3.95,5.28-6.79,9.3-8.7,1.55-.73,3.16-1.28,4.84-1.61.79-.15,1.59-.25,2.39-.33.72-.08,1.44-.14,2.16-.15.67-.01,1.35,0,2.01.08,1.1.13,2.19.28,3.27.52,3.21.72,6.1,2.08,8.66,4.13,2.33,1.87,4.17,4.13,5.42,6.85.48,1.03.86,2.1,1.13,3.21.47,1.94.61,3.91.4,5.9-.1.96-.25,1.9-.52,2.83-.98,3.48-2.85,6.4-5.53,8.82-2.52,2.28-5.43,3.84-8.69,4.74-.97.27-1.95.5-2.96.59-1.04.1-2.08.18-2.9.24Zm1.08-31.91c-.13-.02-.26-.06-.39-.07-.55,0-1.1,0-1.65,0-.13,0-.26.04-.39.07-.47.06-.95.09-1.42.18-1.41.26-2.75.7-4.02,1.38-2.85,1.53-4.95,3.73-6.04,6.81-.32.9-.6,1.82-.6,2.8,0,.93-.05,1.87.14,2.79.17.83.37,1.64.71,2.43,1.37,3.14,3.74,5.25,6.79,6.65.83.38,1.73.61,2.62.81.38.09.78.11,1.17.17.22.02.44.05.65.07.02,0,.05,0,.07.01.1.02.21.06.31.06.55,0,1.1,0,1.65,0,.1,0,.21-.04.31-.06.02,0,.05,0,.07-.01.22-.02.44-.05.65-.07.4-.07.81-.12,1.21-.2,1.02-.21,2.01-.53,2.95-.98,3-1.44,5.27-3.58,6.5-6.75.34-.87.55-1.75.69-2.65.18-1.16.11-2.32-.11-3.48-.19-1.01-.52-1.98-.99-2.88-1.54-3.02-3.96-5.03-7.12-6.21-1.23-.46-2.49-.7-3.79-.85Z"/>
      <path class="cls-2" d="m62.5,57.2c-.39-.05-.79-.08-1.17-.17-.89-.21-1.79-.43-2.62-.81-3.05-1.4-5.42-3.52-6.79-6.65-.34-.78-.54-1.6-.71-2.43-.19-.93-.15-1.86-.14-2.79,0-.97.28-1.9.6-2.8,1.1-3.08,3.2-5.28,6.04-6.81,1.26-.68,2.61-1.12,4.02-1.38.47-.09.95-.12,1.42-.18.81,0,1.62,0,2.43,0,1.29.14,2.56.39,3.79.85,3.16,1.18,5.58,3.2,7.12,6.21.46.91.8,1.87.99,2.88.21,1.15.29,2.31.11,3.48-.14.91-.35,1.79-.69,2.65-1.24,3.16-3.5,5.31-6.5,6.75-.94.45-1.93.77-2.95.98-.4.08-.81.14-1.21.2-.22.02-.44.05-.65.07-.02,0-.05,0-.07.01-.76,0-1.51,0-2.27,0-.02,0-.05,0-.07-.01-.22-.02-.44-.05-.65-.07Z"/>
    </g>
    <g id="blender">
      <polygon class="cls-1" points="739.12 58.26 158.52 58.26 158.52 31.71 739.12 31.71 739.12 44.2 739.12 58.26"/>
      <polygon class="cls-3" points="739.12 58.26 158.52 58.26 158.52 31.71 739.12 31.71 739.12 44.2 739.12 58.26"/>
      <rect class="cls-6" x="158.59" y="31.94" width="159.59" height="26.55"/>
      <g>
        <path class="cls-5" d="m474.58,48.56c-.64,0-1.21-.13-1.71-.4-.5-.26-.9-.63-1.19-1.11-.29-.48-.44-1.03-.44-1.67s.15-1.2.44-1.67c.29-.48.69-.85,1.19-1.11.5-.26,1.07-.4,1.71-.4.48,0,.92.07,1.32.22.4.15.76.34,1.07.58.31.24.58.5.79.79.22.28.38.57.49.85.11.28.17.54.17.76,0,.3-.09.63-.26.99s-.43.71-.76,1.04c-.33.33-.73.6-1.21.81-.47.21-1.01.32-1.61.32Zm3.02-1.04v-1.16l.07-.28v-1.58l-.07-.25v-1.85h2.23v5.02c0,.85-.19,1.57-.58,2.17-.39.6-.93,1.05-1.61,1.36-.69.31-1.49.47-2.4.47-.63,0-1.21-.08-1.75-.25-.53-.16-1.06-.41-1.58-.74v-1.7c.5.37,1.01.63,1.55.8.54.16,1.08.25,1.63.25.81,0,1.43-.18,1.86-.55.43-.36.65-.93.65-1.7Zm-2.28-.5c.5,0,.94-.13,1.33-.4.39-.26.73-.68,1.02-1.24-.29-.57-.63-.98-1.03-1.25-.4-.26-.84-.4-1.33-.4-.38,0-.71.07-.98.2s-.48.33-.63.57c-.15.24-.22.53-.22.87s.07.61.22.86c.14.24.35.43.63.57s.61.2.99.2Z"/>
        <path class="cls-5" d="m485.23,49.43c-.86,0-1.62-.15-2.27-.46-.65-.3-1.15-.73-1.51-1.27-.36-.54-.54-1.17-.54-1.88s.18-1.35.54-1.89c.36-.54.86-.96,1.51-1.27.65-.3,1.4-.46,2.27-.46s1.62.15,2.27.46c.65.3,1.15.73,1.52,1.27.36.54.55,1.17.55,1.9s-.18,1.34-.55,1.88c-.36.54-.87.96-1.52,1.27-.65.3-1.4.46-2.27.46Zm.01-1.68c.43,0,.8-.08,1.11-.23.31-.16.54-.38.71-.67.16-.29.25-.63.25-1.03s-.08-.75-.25-1.04c-.16-.29-.4-.52-.71-.67-.31-.16-.68-.23-1.11-.23s-.8.08-1.12.23-.55.38-.72.67-.25.64-.25,1.04.08.74.25,1.03.41.51.72.67c.31.16.68.23,1.12.23Z"/>
        <path class="cls-5" d="m489.87,44.05v-.97l1.42-.52.95-1.99h1.28v1.82h2.95v1.66h-2.95v2.21c0,.54.1.91.31,1.12s.58.32,1.12.32c.34,0,.64-.03.9-.09.26-.06.51-.15.74-.26v1.69c-.25.1-.56.18-.95.26s-.78.12-1.2.12c-.73,0-1.33-.12-1.79-.35-.47-.23-.81-.56-1.03-.98-.22-.42-.33-.91-.33-1.48v-2.57h-1.42Zm6.19,0v-1.66h2.4l-1.44,1.03,1.4-2.86h1.28v1.82h2.95v1.66h-2.95v2.21c0,.54.1.91.31,1.12s.58.32,1.13.32c.34,0,.65-.03.91-.1.26-.06.5-.15.73-.25v1.69c-.25.1-.56.18-.95.26-.38.08-.78.12-1.2.12-.73,0-1.33-.12-1.79-.35-.47-.23-.81-.56-1.03-.98-.22-.42-.33-.91-.33-1.48v-2.57h-1.42Z"/>
        <path class="cls-5" d="m510.4,45.81c-.12.73-.35,1.36-.68,1.9-.34.54-.76.96-1.27,1.26-.51.3-1.09.45-1.73.45-.67,0-1.26-.15-1.77-.46-.51-.3-.91-.73-1.19-1.27s-.43-1.17-.43-1.89.14-1.35.43-1.89.69-.96,1.19-1.27c.51-.3,1.1-.46,1.77-.46s1.22.15,1.73.45c.51.3.94.72,1.28,1.25.34.54.57,1.17.68,1.91Zm-4.82,0c0,.37.08.69.23.98.15.28.36.51.63.67s.58.25.93.25.69-.08,1-.25c.32-.16.59-.39.83-.67.24-.28.42-.61.54-.98-.12-.37-.3-.69-.54-.98-.24-.28-.52-.51-.83-.67-.32-.16-.65-.25-1-.25s-.66.08-.93.25c-.27.16-.48.39-.63.67-.15.28-.23.61-.23.98Zm4.27,3.42l-.3-2.48.32-.94-.32-.92.3-2.5h2.32l-.42,3.42.42,3.42h-2.32Z"/>
        <path class="cls-5" d="m523.22,45.81c-.12.73-.35,1.36-.68,1.9-.34.54-.76.96-1.27,1.26-.51.3-1.09.45-1.73.45-.67,0-1.26-.15-1.77-.46-.51-.3-.91-.73-1.19-1.27s-.43-1.17-.43-1.89.14-1.35.43-1.89.69-.96,1.19-1.27c.51-.3,1.1-.46,1.77-.46s1.22.15,1.73.45c.51.3.94.72,1.28,1.25.34.54.57,1.17.68,1.91Zm-4.82,0c0,.37.08.69.23.98.15.28.36.51.63.67s.58.25.93.25.69-.08,1-.25c.32-.16.59-.39.83-.67.24-.28.42-.61.54-.98-.12-.37-.3-.69-.54-.98-.24-.28-.52-.51-.83-.67-.32-.16-.65-.25-1-.25s-.66.08-.93.25c-.27.16-.48.39-.63.67-.15.28-.23.61-.23.98Zm4.31,3.42l-.3-2.58.41-.82-.4-1.03.55-4.81h2.32l-.68,5.65.41,3.59h-2.3Z"/>
        <path class="cls-5" d="m530.21,49.43c-.86,0-1.62-.15-2.27-.46-.65-.3-1.15-.73-1.51-1.27-.36-.54-.54-1.17-.54-1.88s.18-1.35.54-1.89c.36-.54.86-.96,1.51-1.27.65-.3,1.4-.46,2.27-.46s1.62.15,2.27.46c.65.3,1.15.73,1.52,1.27.36.54.55,1.17.55,1.9s-.18,1.34-.55,1.88c-.36.54-.87.96-1.52,1.27-.65.3-1.4.46-2.27.46Zm.01-1.68c.43,0,.8-.08,1.11-.23.31-.16.54-.38.71-.67.16-.29.25-.63.25-1.03s-.08-.75-.25-1.04c-.16-.29-.4-.52-.71-.67-.31-.16-.68-.23-1.11-.23s-.8.08-1.12.23-.55.38-.72.67-.25.64-.25,1.04.08.74.25,1.03.41.51.72.67c.31.16.68.23,1.12.23Z"/>
        <path class="cls-5" d="m538.67,39.99h2.22v4.48l-.3.59v1.61l.3.58v1.99h-2.22v-9.24Zm1.48,5.82c.12-.74.35-1.37.68-1.91s.76-.95,1.27-1.25c.51-.3,1.09-.45,1.73-.45.67,0,1.26.15,1.77.46.51.3.91.73,1.19,1.27.29.54.43,1.17.43,1.89s-.14,1.35-.43,1.89c-.29.54-.69.96-1.19,1.27-.51.3-1.1.46-1.77.46s-1.22-.15-1.73-.45c-.51-.3-.94-.72-1.27-1.26s-.56-1.17-.68-1.9Zm4.82,0c0-.37-.08-.69-.23-.98-.15-.28-.36-.51-.63-.67-.27-.16-.58-.25-.93-.25s-.69.08-1,.25c-.32.16-.59.39-.83.67-.24.28-.42.61-.55.98.13.37.31.69.55.98.24.28.51.51.83.67s.65.25,1,.25.66-.08.93-.25.48-.39.63-.67c.15-.28.23-.61.23-.98Z"/>
        <path class="cls-5" d="m552.27,49.43c-.82,0-1.55-.15-2.19-.46-.64-.3-1.15-.73-1.52-1.27-.37-.54-.55-1.18-.55-1.91s.18-1.34.53-1.87c.35-.54.84-.96,1.46-1.26.62-.3,1.32-.46,2.11-.46s1.49.18,2.06.53,1.02.85,1.33,1.49c.31.64.47,1.39.47,2.26h-6.17v-1.4h4.94l-.8.5c-.02-.38-.11-.69-.27-.95-.16-.26-.36-.46-.62-.6-.26-.14-.56-.21-.91-.21-.38,0-.72.08-1,.23-.28.15-.5.36-.65.64-.16.27-.23.59-.23.95,0,.46.1.84.31,1.16.2.32.5.56.89.73.39.17.86.25,1.42.25.51,0,1.02-.07,1.54-.21.51-.14.97-.34,1.38-.59v1.45c-.46.32-.99.57-1.59.74-.6.18-1.24.26-1.93.26Z"/>
        <path class="cls-5" d="m556.28,44.05v-.97l1.42-.52.95-1.99h1.28v1.82h2.95v1.66h-2.95v2.21c0,.54.1.91.31,1.12s.58.32,1.12.32c.34,0,.64-.03.9-.09.26-.06.51-.15.74-.26v1.69c-.25.1-.56.18-.95.26s-.78.12-1.2.12c-.73,0-1.33-.12-1.79-.35-.47-.23-.81-.56-1.03-.98-.22-.42-.33-.91-.33-1.48v-2.57h-1.42Zm6.19,0v-1.66h2.4l-1.44,1.03,1.4-2.86h1.28v1.82h2.95v1.66h-2.95v2.21c0,.54.1.91.31,1.12s.58.32,1.13.32c.34,0,.65-.03.91-.1.26-.06.5-.15.73-.25v1.69c-.25.1-.56.18-.95.26-.38.08-.78.12-1.2.12-.73,0-1.33-.12-1.79-.35-.47-.23-.81-.56-1.03-.98-.22-.42-.33-.91-.33-1.48v-2.57h-1.42Z"/>
        <path class="cls-5" d="m573.92,49.43c-.82,0-1.55-.15-2.19-.46-.64-.3-1.15-.73-1.52-1.27-.37-.54-.55-1.18-.55-1.91s.18-1.34.53-1.87c.35-.54.84-.96,1.46-1.26.62-.3,1.32-.46,2.11-.46s1.49.18,2.06.53,1.02.85,1.33,1.49c.31.64.47,1.39.47,2.26h-6.17v-1.4h4.94l-.8.5c-.02-.38-.11-.69-.27-.95-.16-.26-.36-.46-.62-.6-.26-.14-.56-.21-.91-.21-.38,0-.72.08-1,.23-.28.15-.5.36-.65.64-.16.27-.23.59-.23.95,0,.46.1.84.31,1.16.2.32.5.56.89.73.39.17.86.25,1.42.25.51,0,1.02-.07,1.54-.21.51-.14.97-.34,1.38-.59v1.45c-.46.32-.99.57-1.59.74-.6.18-1.24.26-1.93.26Z"/>
        <path class="cls-5" d="m578.38,42.39h2.26l.41,2.46v4.38h-2.23v-4.57l-.43-2.27Zm5.93-.1v1.92c-.22-.05-.43-.08-.64-.11-.21-.02-.41-.04-.58-.04-.38,0-.73.08-1.04.23s-.55.4-.73.74c-.18.34-.27.77-.27,1.31l-.44-.55c.06-.49.15-.95.28-1.38.13-.43.3-.81.53-1.15s.5-.59.83-.79c.33-.19.73-.29,1.21-.29.14,0,.28,0,.43.02.15.02.3.04.43.07Z"/>
        <path class="cls-5" d="m586.36,49.35c-.38,0-.68-.11-.91-.33s-.35-.51-.35-.86.12-.64.35-.85.54-.32.91-.32.68.11.91.32c.23.22.35.5.35.85s-.12.64-.35.86c-.23.22-.54.33-.91.33Zm-1.15-9.12h2.32l-.37,5.93h-1.58l-.36-5.93Z"/>
      </g>
    </g>
  </g>
</svg>