<?xml version="1.0" encoding="UTF-8"?>
<svg id="Layer_2" data-name="Layer 2" xmlns="http://www.w3.org/2000/svg" viewBox="0 0 741.96 101.21">
  <defs>
    <style>
      .cls-1 {
        fill: #0ace82;
      }

      .cls-1, .cls-2, .cls-3, .cls-4, .cls-5, .cls-6 {
        stroke-width: 0px;
      }

      .cls-2 {
        fill: #a259ff;
      }

      .cls-7 {
        fill: none;
        stroke: #fff;
        stroke-miterlimit: 10;
      }

      .cls-3 {
        fill: #f34e1e;
      }

      .cls-4 {
        fill: #fff;
      }

      .cls-5 {
        fill: #ff7161;
      }

      .cls-6 {
        fill: #1abcfd;
      }
    </style>
  </defs>
  <g id="Layer_1-2" data-name="Layer 1">
    <g>
      <g>
        <rect class="cls-4" x="0" width="101.21" height="101.21" rx="11.55" ry="11.55"/>
        <g>
          <path class="cls-3" d="m38.92,15.18h11.68v23.61h-11.68c-6.51,0-11.8-5.29-11.8-11.8h0c0-6.51,5.29-11.8,11.8-11.8Z"/>
          <path class="cls-5" d="m50.6,15.18h11.68c6.51,0,11.8,5.29,11.8,11.8h0c0,6.51-5.29,11.8-11.8,11.8h-11.68V15.18h0Z"/>
          <path class="cls-2" d="m38.92,38.79h11.68v23.61h-11.68c-6.51,0-11.8-5.29-11.8-11.8h0c0-6.51,5.29-11.8,11.8-11.8Z"/>
          <path class="cls-1" d="m38.86,62.42h11.74v11.86c0,6.48-5.26,11.74-11.74,11.74h0c-6.48,0-11.74-5.26-11.74-11.74v-.12c0-6.48,5.26-11.74,11.74-11.74Z"/>
          <rect class="cls-6" x="50.6" y="38.79" width="23.49" height="23.61" rx="11.74" ry="11.74"/>
        </g>
      </g>
      <g>
        <polygon class="cls-7" points="741.46 59.63 160.87 59.63 160.87 33.08 741.46 33.08 741.46 45.57 741.46 59.63"/>
        <rect class="cls-4" x="160.13" y="33.11" width="283.71" height="26.55"/>
      </g>
    </g>
  </g>
</svg>