<?xml version="1.0" encoding="UTF-8"?>
<svg id="Layer_2" data-name="Layer 2" xmlns="http://www.w3.org/2000/svg" viewBox="0 0 109.37 171.35">
  <defs>
    <style>
      .cls-1 {
        stroke-width: 3.33px;
      }

      .cls-1, .cls-2 {
        fill: none;
        stroke: #fff;
        stroke-miterlimit: 10;
      }

      .cls-2 {
        stroke-width: 3px;
      }
    </style>
  </defs>
  <g id="Layer_1-2" data-name="Layer 1">
    <path class="cls-2" d="m47.03,65.59l-3.85-48.77c-.18-2.32.05-4.67.81-6.86,1.24-3.57,4.09-7.77,10.62-7.94,5.71-.15,9.29,2.66,11.43,5.51,1.77,2.34,2.8,5.16,3.15,8.07l4.82,40.21,8.44-43.78c1.35-7.01,8.17-11.76,15.14-10.23.3.07.61.14.93.23,11.32,3.06,9.19,14.64,9.19,14.64l-8.45,58.87c-.95,6.59-1.42,13.23-1.42,19.88v29.51c0,4.79-.77,9.57-2.42,14.07-4.35,11.87-16.13,30.85-46.94,30.85-26.14,0-37.77-13.67-42.92-25.06-2.76-6.1-4.06-12.77-4.06-19.47v-42.62"/>
    <rect class="cls-2" x="1.5" y="70.53" width="24.85" height="40.85" rx="12" ry="12"/>
    <path class="cls-2" d="m70.95,120.13h-24.04c-6.83,0-14.25-5.59-16.49-12.43h0c-2.24-6.83,1.53-12.43,8.36-12.43h35.66c13.74,0,23.4,11.03,23.4,20.82"/>
    <path class="cls-1" d="m51.73,94.95v-20.43c0-6.83-5.59-12.43-12.43-12.43h0c-6.83,0-12.43,5.59-12.43,12.43v25.62"/>
  </g>
</svg>