<?xml version="1.0" encoding="UTF-8"?>
<svg id="Layer_2" data-name="Layer 2" xmlns="http://www.w3.org/2000/svg" viewBox="0 0 740.99 101.21">
  <defs>
    <style>
      .cls-1 {
        fill: none;
        stroke: #71ccff;
      }

      .cls-1, .cls-2 {
        stroke-miterlimit: 10;
      }

      .cls-3 {
        fill: #ffa233;
      }

      .cls-3, .cls-4, .cls-5 {
        stroke-width: 0px;
      }

      .cls-6 {
        letter-spacing: 0em;
      }

      .cls-2 {
        fill: #ce7500;
        stroke: #ce7500;
        stroke-width: 1.08px;
      }

      .cls-4 {
        fill: #300;
      }

      .cls-7 {
        letter-spacing: -.03em;
      }

      .cls-8 {
        letter-spacing: 0em;
      }

      .cls-5 {
        fill: #71ccff;
      }

      .cls-9 {
        fill: #fff;
        font-family: Unbounded-SemiBold, Unbounded;
        font-size: 12px;
        font-variation-settings: 'wght' 600;
        font-weight: 600;
      }
    </style>
  </defs>
  <g id="Layer_1-2" data-name="Layer 1">
    <g>
      <rect class="cls-4" x="0" width="101.21" height="101.21" rx="11.55" ry="11.55"/>
      <g>
        <path class="cls-2" d="m35.32,55.87l-4.52,13.7h-5.82l14.8-43.56h6.79l14.87,43.56h-6.01l-4.65-13.7h-15.45Zm14.28-4.4l-4.27-12.54c-.97-2.84-1.62-5.43-2.26-7.95h-.13c-.65,2.59-1.36,5.24-2.2,7.89l-4.27,12.6h13.12Z"/>
        <path class="cls-2" d="m73.78,29.5c.06,1.94-1.36,3.49-3.62,3.49-2,0-3.43-1.55-3.43-3.49s1.49-3.56,3.56-3.56,3.49,1.55,3.49,3.56Zm-6.33,40.07v-31.28h5.69v31.28h-5.69Z"/>
      </g>
    </g>
    <g id="ai">
      <polygon class="cls-3" points="740.49 65.94 159.9 65.94 159.9 39.39 740.49 39.39 740.49 51.88 740.49 65.94"/>
      <polygon class="cls-1" points="740.49 65.94 159.9 65.94 159.9 39.39 740.49 39.39 740.49 51.88 740.49 65.94"/>
      <polygon class="cls-5" points="159.96 66.24 159.96 39.68 523.31 39.68 523.26 66.24 159.96 66.24"/>
      <text class="cls-9" transform="translate(579.51 55.51)"><tspan x="0" y="0">hand</tspan><tspan class="cls-7" x="38.16" y="0">y</tspan><tspan x="46.93" y="0"> </tspan><tspan class="cls-6" x="49.96" y="0">e</tspan><tspan x="58.67" y="0">no</tspan><tspan class="cls-6" x="77.42" y="0">u</tspan><tspan class="cls-8" x="86.59" y="0">gh!</tspan></text>
    </g>
  </g>
</svg>