<?xml version="1.0" encoding="UTF-8"?>
<svg id="Layer_2" data-name="Layer 2" xmlns="http://www.w3.org/2000/svg" viewBox="0 0 739.62 79.94">
  <defs>
    <style>
      .cls-1 {
        fill: #265787;
      }

      .cls-1, .cls-2, .cls-3 {
        stroke-width: 0px;
      }

      .cls-4 {
        fill: none;
        stroke: #fff;
        stroke-miterlimit: 10;
      }

      .cls-2 {
        fill: #ea7600;
      }

      .cls-3 {
        fill: #fff;
      }
    </style>
  </defs>
  <g id="Layer_1-2" data-name="Layer 1">
    <g>
      <g>
        <path class="cls-2" d="m98.46,49.4c0,.27,0,.54,0,.8-.06.66-.08,1.33-.18,1.98-.12.83-.29,1.65-.46,2.47-.11.54-.22,1.09-.36,1.62-.16.57-.35,1.13-.55,1.68-.29.81-.57,1.62-.92,2.4-1.26,2.85-2.94,5.44-5,7.78-3.47,3.95-7.66,6.89-12.49,8.94-1.9.81-3.86,1.45-5.88,1.9-1.06.24-2.14.42-3.22.6-.49.09-1,.12-1.5.18-.09,0-.17.01-.26.02-.05,0-.09.01-.14.02-.09,0-.17.02-.26.03-.08,0-.16,0-.23.01-.11,0-.22.01-.33.02-.11.01-.21.03-.32.04-.29,0-.58.02-.87.02-.87,0-1.73,0-2.6,0-.29,0-.58-.02-.87-.02-.11-.01-.21-.03-.32-.04-.11,0-.22-.01-.33-.02-.08,0-.16-.01-.23-.02-.09-.01-.18-.02-.27-.03-.04,0-.08-.01-.12-.02-.09,0-.17-.01-.26-.02-.69-.02-1.37-.13-2.04-.24-.67-.11-1.34-.21-2.01-.33-.32-.06-.64-.15-.95-.24-.86-.24-1.73-.45-2.58-.73-3.81-1.23-7.34-3.01-10.54-5.44-3.62-2.74-6.58-6.07-8.78-10.05-.46-.83-.9-1.66-1.27-2.53-.42-.98-.79-1.99-1.1-3.01-.29-.95-.47-1.93-.69-2.91-.14-.63-.24-1.27-.25-1.92-.01-.09-.02-.17-.03-.26-.01-.18-.03-.37-.04-.55-.01-.03-.03-.07-.04-.1,0-.18,0-.36,0-.54.01-.14.02-.28.03-.43.06-.76.11-1.53.17-2.37-.15.11-.25.18-.35.26-3.39,2.78-6.79,5.56-10.18,8.35-2.88,2.36-5.75,4.71-8.63,7.07-1.09.89-2.3,1.54-3.68,1.87-.46.11-.93.23-1.41.23-.32,0-.65,0-.97,0-1.52-.11-2.84-.67-3.87-1.82-.54-.6-.94-1.29-1.11-2.09-.05-.23-.1-.46-.16-.69.02-.03.04-.06.06-.08-.01-.03-.02-.06-.03-.09,0-.34,0-.69,0-1.03,0-.04,0-.08,0-.11,0-.07,0-.14.01-.21,0-.03,0-.06,0-.09.08-.62.23-1.23.5-1.78.39-.81.84-1.59,1.47-2.24.45-.46.91-.92,1.42-1.31,6.08-4.66,12.16-9.31,18.25-13.97,5.64-4.31,11.27-8.62,16.91-12.93.09-.07.17-.16.26-.24-.09-.02-.18-.07-.27-.07-.83,0-1.66,0-2.49,0-.28,0-.56.02-.84.03-2.79,0-5.58.02-8.37.03-.46,0-.91,0-1.37,0-.03,0-.06,0-.09,0-.43,0-.85,0-1.28,0-.03,0-.06,0-.09,0-.45,0-.91,0-1.36,0-.09-.02-.18-.05-.27-.05-1,0-2.01,0-3.01,0-.09,0-.18.03-.27.05-.15,0-.3-.01-.45-.02-.09,0-.18-.02-.27-.02-1.33-.12-2.48-.62-3.39-1.62-.52-.57-.82-1.24-.89-2.01,0-.25,0-.5-.01-.74.08-1.38.8-2.43,1.76-3.33,1.12-1.07,2.49-1.68,4-1.95.42-.07.85-.08,1.27-.12.03,0,.06,0,.09,0,.72,0,1.45,0,2.17,0,.83,0,1.67,0,2.5,0,1.61,0,3.22,0,4.83,0,6.12,0,12.24,0,18.37-.01,3.19,0,6.39-.02,9.58-.03.46,0,.92,0,1.39,0,.04,0,.08-.02.17-.04-.07-.07-.12-.12-.18-.16-4.06-3.3-8.12-6.6-12.18-9.91-.37-.3-.73-.63-1.04-1-.6-.71-.83-1.56-.71-2.47.1-.71.46-1.33.94-1.86.88-.99,2.01-1.54,3.28-1.81.22-.05.45-.06.68-.09.54,0,1.08,0,1.62,0,1.12.07,2.11.47,3,1.14,1.54,1.17,3.07,2.36,4.6,3.53,8.64,6.64,17.28,13.28,25.93,19.92,3.62,2.78,6.58,6.11,8.75,10.13.39.73.72,1.5,1.07,2.26.24.54.49,1.07.69,1.63.23.64.42,1.29.6,1.94.24.87.47,1.74.66,2.61.11.51.15,1.04.22,1.57.06.42.12.84.18,1.25,0,.06.02.12.03.19,0,.13.02.26.02.39,0,0-.02.02-.02.03,0,.02.02.04.02.06,0,.13.01.26.02.4,0,.27,0,.54,0,.8,0,.51,0,1.03,0,1.54Zm-33.96,15.71c.82-.07,1.86-.15,2.9-.24,1.01-.09,1.99-.32,2.96-.59,3.26-.91,6.18-2.47,8.69-4.74,2.67-2.42,4.54-5.34,5.53-8.82.26-.93.42-1.87.52-2.83.21-1.99.07-3.96-.4-5.9-.27-1.11-.65-2.18-1.13-3.21-1.25-2.72-3.09-4.99-5.42-6.85-2.56-2.05-5.46-3.41-8.66-4.13-1.08-.24-2.18-.4-3.27-.52-.66-.08-1.34-.09-2.01-.08-.72.01-1.44.07-2.16.15-.8.09-1.6.18-2.39.33-1.68.33-3.29.88-4.84,1.61-4.02,1.91-7.19,4.74-9.3,8.7-.45.85-.88,1.72-1.16,2.63-.38,1.2-.68,2.43-.8,3.7-.15,1.74-.14,3.47.21,5.18.23,1.11.53,2.2.97,3.25,1.22,2.91,3.06,5.34,5.46,7.36,2.01,1.7,4.29,2.93,6.76,3.79.77.27,1.56.51,2.37.65.73.13,1.46.31,2.19.39.92.1,1.85.11,3,.18Z"/>
        <path class="cls-3" d="m64.5,65.1c-1.15-.06-2.08-.08-3-.18-.74-.08-1.46-.26-2.19-.39-.81-.14-1.6-.38-2.37-.65-2.47-.87-4.75-2.1-6.76-3.79-2.4-2.02-4.25-4.46-5.46-7.36-.44-1.05-.75-2.14-.97-3.25-.35-1.71-.37-3.44-.21-5.18.11-1.27.42-2.5.8-3.7.28-.91.71-1.79,1.16-2.63,2.11-3.95,5.28-6.79,9.3-8.7,1.55-.73,3.16-1.28,4.84-1.61.79-.15,1.59-.25,2.39-.33.72-.08,1.44-.14,2.16-.15.67-.01,1.35,0,2.01.08,1.1.13,2.19.28,3.27.52,3.21.72,6.1,2.08,8.66,4.13,2.33,1.87,4.17,4.13,5.42,6.85.48,1.03.86,2.1,1.13,3.21.47,1.94.61,3.91.4,5.9-.1.96-.25,1.9-.52,2.83-.98,3.48-2.85,6.4-5.53,8.82-2.52,2.28-5.43,3.84-8.69,4.74-.97.27-1.95.5-2.96.59-1.04.1-2.08.18-2.9.24Zm1.08-31.91c-.13-.02-.26-.06-.39-.07-.55,0-1.1,0-1.65,0-.13,0-.26.04-.39.07-.47.06-.95.09-1.42.18-1.41.26-2.75.7-4.02,1.38-2.85,1.53-4.95,3.73-6.04,6.81-.32.9-.6,1.82-.6,2.8,0,.93-.05,1.87.14,2.79.17.83.37,1.64.71,2.43,1.37,3.14,3.74,5.25,6.79,6.65.83.38,1.73.61,2.62.81.38.09.78.11,1.17.17.22.02.44.05.65.07.02,0,.05,0,.07.01.1.02.21.06.31.06.55,0,1.1,0,1.65,0,.1,0,.21-.04.31-.06.02,0,.05,0,.07-.01.22-.02.44-.05.65-.07.4-.07.81-.12,1.21-.2,1.02-.21,2.01-.53,2.95-.98,3-1.44,5.27-3.58,6.5-6.75.34-.87.55-1.75.69-2.65.18-1.16.11-2.32-.11-3.48-.19-1.01-.52-1.98-.99-2.88-1.54-3.02-3.96-5.03-7.12-6.21-1.23-.46-2.49-.7-3.79-.85Z"/>
        <path class="cls-1" d="m62.5,57.2c-.39-.05-.79-.08-1.17-.17-.89-.21-1.79-.43-2.62-.81-3.05-1.4-5.42-3.52-6.79-6.65-.34-.78-.54-1.6-.71-2.43-.19-.93-.15-1.86-.14-2.79,0-.97.28-1.9.6-2.8,1.1-3.08,3.2-5.28,6.04-6.81,1.26-.68,2.61-1.12,4.02-1.38.47-.09.95-.12,1.42-.18.81,0,1.62,0,2.43,0,1.29.14,2.56.39,3.79.85,3.16,1.18,5.58,3.2,7.12,6.21.46.91.8,1.87.99,2.88.21,1.15.29,2.31.11,3.48-.14.91-.35,1.79-.69,2.65-1.24,3.16-3.5,5.31-6.5,6.75-.94.45-1.93.77-2.95.98-.4.08-.81.14-1.21.2-.22.02-.44.05-.65.07-.02,0-.05,0-.07.01-.76,0-1.51,0-2.27,0-.02,0-.05,0-.07-.01-.22-.02-.44-.05-.65-.07Z"/>
      </g>
      <g>
        <polygon class="cls-4" points="739.12 58.26 158.52 58.26 158.52 31.71 739.12 31.71 739.12 44.2 739.12 58.26"/>
        <rect class="cls-3" x="158.59" y="31.94" width="159.59" height="26.55"/>
      </g>
    </g>
  </g>
</svg>