<?xml version="1.0" encoding="UTF-8"?>
<svg id="Layer_2" data-name="Layer 2" xmlns="http://www.w3.org/2000/svg" xmlns:xlink="http://www.w3.org/1999/xlink" viewBox="0 0 1920 674.82">
  <defs>
    <style>
      .cls-1 {
        fill: url(#linear-gradient);
      }
    </style>
    <linearGradient id="linear-gradient" x1="-741.45" y1="337.41" x2="2139.59" y2="337.41" gradientUnits="userSpaceOnUse">
      <stop offset="0" stop-color="#f5ffcc"/>
      <stop offset=".18" stop-color="#f3ffc5"/>
      <stop offset=".44" stop-color="#f0ffb3"/>
      <stop offset=".73" stop-color="#eaff96"/>
      <stop offset="1" stop-color="#e4ff75"/>
    </linearGradient>
  </defs>
  <g id="Layer_1-2" data-name="Layer 1">
    <polygon class="cls-1" points="0 0 0 337.41 0 674.82 1920 674.82 1920 337.41 1920 0 0 0"/>
    <g>
      <path d="m313.58,261.8h-23.44l59.05-139.77h59.71l-75.19,165.87h-65.02l-75.19-165.87h61.04l59.05,139.77Z"/>
      <path d="m421.5,122.03h57.06v165.87h-57.06V122.03Z"/>
      <path d="m499.57,233.27h57.94c.59,3.25,2.28,6.01,5.09,8.29,2.8,2.29,6.63,4.06,11.5,5.31,4.87,1.25,10.69,1.88,17.47,1.88,8.85,0,15.74-.88,20.68-2.65,4.94-1.77,7.41-4.64,7.41-8.62,0-2.65-1.4-4.9-4.2-6.75-2.8-1.84-8.55-3.06-17.25-3.65l-27.42-1.77c-24.92-1.62-42.9-6.93-53.96-15.92-11.06-8.99-16.59-20.86-16.59-35.61,0-12.38,3.54-22.7,10.62-30.96,7.08-8.26,16.99-14.45,29.75-18.58,12.75-4.13,27.68-6.19,44.78-6.19s31.44,2.32,44.34,6.97c12.9,4.64,23.14,11.17,30.74,19.57,7.59,8.4,11.76,18.21,12.5,29.41h-57.94c-.44-2.65-1.88-4.94-4.31-6.86-2.43-1.92-5.86-3.39-10.28-4.42-4.42-1.03-9.81-1.55-16.14-1.55-8.11,0-14.49.81-19.13,2.43-4.64,1.62-6.97,4.28-6.97,7.96,0,2.51,1.36,4.64,4.09,6.41,2.73,1.77,8,2.95,15.81,3.54l30.96,1.99c16.22,1.03,29.34,3.43,39.37,7.19,10.02,3.76,17.36,8.96,22,15.59,4.64,6.63,6.97,14.82,6.97,24.55,0,12.24-3.61,22.93-10.84,32.07-7.23,9.14-17.36,16.25-30.41,21.34s-28.27,7.63-45.67,7.63-33.76-2.43-47.33-7.3c-13.57-4.87-24.14-11.72-31.74-20.57-7.6-8.85-11.54-19.09-11.83-30.74Z"/>
      <path d="m752.35,211.82c0,6.05,1.07,11.24,3.21,15.59,2.14,4.35,5.42,7.71,9.84,10.06,4.42,2.36,10.1,3.54,17.03,3.54s12.83-1.14,17.25-3.43c4.42-2.28,7.66-5.64,9.73-10.06,2.06-4.42,3.1-9.66,3.1-15.7v-89.79h57.06v92.89c0,15.48-3.61,28.97-10.84,40.47-7.23,11.5-17.36,20.46-30.41,26.87-13.05,6.41-28.35,9.62-45.89,9.62s-32.62-3.21-45.67-9.62c-13.05-6.41-23.22-15.37-30.52-26.87s-10.95-24.99-10.95-40.47v-92.89h57.06v89.79Z"/>
      <path d="m1018.4,122.03l72.76,165.87h-60.82l-57.28-140.66h14.6l-57.28,140.66h-60.82l72.76-165.87h76.08Zm-95.54,138v-45.34h113.01v45.34h-113.01Z"/>
      <path d="m1160.82,122.03v140.65l-25.65-25.65h123.41v50.87h-154.81V122.03h57.06Z"/>
      <path d="m360.91,387.42v47.55h-122.52l26.1-25.43v143.75h-57.06v-165.87h153.48Zm-125.62,64.8h121.19v47.55h-121.19v-47.55Z"/>
      <path d="m490.73,484.72v-35.16l84.04,103.72h-70.11l-49.54-65.68h28.75l-49.98,65.68h-69.22l84.7-103.72v35.16l-80.5-97.31h71.43l44.67,59.05h-28.75l43.79-59.05h70.55l-79.84,97.31Z"/>
      <path d="m759.65,387.42l72.76,165.87h-60.82l-57.28-140.65h14.6l-57.28,140.65h-60.82l72.76-165.87h76.08Zm-95.54,138v-45.34h113.01v45.34h-113.01Z"/>
      <path d="m884.38,458.41h55.73c5.6,0,9.95-1.33,13.05-3.98,3.1-2.65,4.64-6.49,4.64-11.5s-1.55-8.85-4.64-11.5c-3.1-2.65-7.45-3.98-13.05-3.98h-63.69l25.65-25.65v151.49h-57.06v-165.87h103.94c13.27,0,24.88,2.32,34.83,6.97,9.95,4.64,17.69,11.1,23.22,19.35,5.53,8.26,8.29,17.99,8.29,29.19s-2.76,20.53-8.29,28.86c-5.53,8.33-13.27,14.78-23.22,19.35-9.95,4.57-21.56,6.86-34.83,6.86h-64.58v-39.59Zm19.46,17.25h63.03l55.07,77.62h-65.24l-52.86-77.62Z"/>
      <path d="m1026.14,387.42h176.48v50.87h-176.48v-50.87Zm59.71,24.55h57.06v141.32h-57.06v-141.32Z"/>
      <path d="m1220.53,387.42h57.06v165.87h-57.06v-165.87Z"/>
      <path d="m1298.6,498.66h57.94c.59,3.24,2.28,6.01,5.09,8.29,2.8,2.29,6.63,4.06,11.5,5.31,4.87,1.25,10.69,1.88,17.47,1.88,8.85,0,15.74-.88,20.68-2.65,4.94-1.77,7.41-4.64,7.41-8.63,0-2.65-1.4-4.9-4.2-6.75-2.8-1.84-8.55-3.06-17.25-3.65l-27.42-1.77c-24.92-1.62-42.9-6.93-53.96-15.92-11.06-8.99-16.59-20.86-16.59-35.61,0-12.38,3.54-22.7,10.62-30.96,7.08-8.25,16.99-14.45,29.75-18.58,12.75-4.12,27.68-6.19,44.78-6.19s31.44,2.32,44.34,6.97c12.9,4.64,23.14,11.17,30.74,19.57,7.59,8.4,11.76,18.21,12.5,29.41h-57.94c-.44-2.65-1.88-4.94-4.31-6.86-2.43-1.91-5.86-3.39-10.28-4.42-4.42-1.03-9.81-1.55-16.14-1.55-8.11,0-14.49.81-19.13,2.43-4.64,1.62-6.97,4.28-6.97,7.96,0,2.51,1.36,4.64,4.09,6.41,2.73,1.77,8,2.95,15.81,3.54l30.96,1.99c16.22,1.03,29.34,3.43,39.37,7.19,10.02,3.76,17.36,8.96,22,15.59,4.64,6.63,6.97,14.82,6.97,24.55,0,12.24-3.61,22.93-10.84,32.07-7.23,9.14-17.36,16.25-30.41,21.34-13.05,5.09-28.27,7.63-45.67,7.63s-33.76-2.43-47.33-7.3c-13.57-4.87-24.14-11.72-31.74-20.57-7.6-8.85-11.54-19.09-11.83-30.74Z"/>
      <path d="m1482.6,387.42h176.48v50.87h-176.48v-50.87Zm59.71,24.55h57.06v141.32h-57.06v-141.32Z"/>
    </g>
  </g>
</svg>