<?xml version="1.0" encoding="UTF-8"?>
<svg id="Layer_2" data-name="Layer 2" xmlns="http://www.w3.org/2000/svg" viewBox="0 0 59.21 59.21">
  <defs>
    <style>
      .cls-1 {
        fill: #314165;
        stroke: #fff;
        stroke-miterlimit: 10;
        stroke-width: 1.21px;
      }

      .cls-2 {
        fill: #fff;
        stroke-width: 0px;
      }
    </style>
  </defs>
  <g id="Layer_5" data-name="Layer 5">
    <g>
      <circle class="cls-1" cx="29.6" cy="29.6" r="29"/>
      <g>
        <path class="cls-2" d="m35.82,19.54c2.12,0,3.85,1.73,3.85,3.85v12.43c0,2.12-1.73,3.85-3.85,3.85h-12.43c-2.12,0-3.85-1.73-3.85-3.85v-12.43c0-2.12,1.73-3.85,3.85-3.85h12.43m0-3h-12.43c-3.78,0-6.85,3.07-6.85,6.85v12.43c0,3.78,3.07,6.85,6.85,6.85h12.43c3.78,0,6.85-3.07,6.85-6.85v-12.43c0-3.78-3.07-6.85-6.85-6.85h0Z"/>
        <path class="cls-2" d="m29.6,26.22c1.87,0,3.38,1.52,3.38,3.38s-1.52,3.38-3.38,3.38-3.38-1.52-3.38-3.38,1.52-3.38,3.38-3.38m0-3c-3.53,0-6.38,2.86-6.38,6.38s2.86,6.38,6.38,6.38,6.38-2.86,6.38-6.38-2.86-6.38-6.38-6.38h0Z"/>
        <circle class="cls-2" cx="36.74" cy="22.83" r="1.71"/>
      </g>
    </g>
  </g>
</svg>