<?xml version="1.0" encoding="UTF-8"?>
<svg id="Layer_2" data-name="Layer 2" xmlns="http://www.w3.org/2000/svg" viewBox="0 0 1471.56 522.15">
  <defs>
    <style>
      .cls-1 {
        fill: #fff;
      }
    </style>
  </defs>
  <g id="Layer_1-2" data-name="Layer 1">
    <g>
      <path class="cls-1" d="m268.7,27.64v165.87h-54.18V49.1l10.39,1.33-55.73,143.09h-56.39L57.06,51.09l10.39-1.55v143.97H13.27V27.64h88.24l49.54,135.13h-19.68L180.46,27.64h88.24Z"/>
      <path class="cls-1" d="m389.9,197.49c-20.2,0-37.86-3.61-52.97-10.84-15.11-7.22-26.87-17.36-35.27-30.41-8.4-13.05-12.61-28.27-12.61-45.67s4.2-32.62,12.61-45.67c8.4-13.05,20.16-23.18,35.27-30.41,15.11-7.22,32.77-10.84,52.97-10.84s37.85,3.61,52.97,10.84c15.11,7.23,26.87,17.36,35.27,30.41,8.4,13.05,12.61,28.27,12.61,45.67s-4.2,32.62-12.61,45.67c-8.4,13.05-20.16,23.19-35.27,30.41-15.12,7.22-32.77,10.84-52.97,10.84Zm0-50.87c8.99,0,16.73-1.44,23.22-4.31,6.49-2.88,11.46-7,14.93-12.38,3.46-5.38,5.2-11.83,5.2-19.35s-1.74-13.97-5.2-19.35c-3.47-5.38-8.44-9.51-14.93-12.38-6.49-2.88-14.23-4.31-23.22-4.31s-16.74,1.44-23.22,4.31c-6.49,2.88-11.46,7-14.93,12.38-3.47,5.38-5.2,11.83-5.2,19.35s1.73,13.97,5.2,19.35c3.46,5.38,8.44,9.51,14.93,12.38,6.49,2.88,14.23,4.31,23.22,4.31Z"/>
      <path class="cls-1" d="m496.94,27.64h176.48v50.87h-176.48V27.64Zm59.71,24.55h57.06v141.32h-57.06V52.19Z"/>
      <path class="cls-1" d="m691.33,27.64h57.06v165.87h-57.06V27.64Z"/>
      <path class="cls-1" d="m869.58,197.49c-20.2,0-37.86-3.61-52.97-10.84-15.11-7.22-26.87-17.36-35.27-30.41-8.4-13.05-12.61-28.27-12.61-45.67s4.2-32.62,12.61-45.67c8.4-13.05,20.16-23.18,35.27-30.41,15.11-7.22,32.77-10.84,52.97-10.84s37.85,3.61,52.97,10.84c15.11,7.23,26.87,17.36,35.27,30.41,8.4,13.05,12.61,28.27,12.61,45.67s-4.2,32.62-12.61,45.67c-8.4,13.05-20.16,23.19-35.27,30.41-15.12,7.22-32.77,10.84-52.97,10.84Zm0-50.87c8.99,0,16.73-1.44,23.22-4.31,6.49-2.88,11.46-7,14.93-12.38,3.46-5.38,5.2-11.83,5.2-19.35s-1.74-13.97-5.2-19.35c-3.47-5.38-8.44-9.51-14.93-12.38-6.49-2.88-14.23-4.31-23.22-4.31s-16.74,1.44-23.22,4.31c-6.49,2.88-11.46,7-14.93,12.38-3.47,5.38-5.2,11.83-5.2,19.35s1.73,13.97,5.2,19.35c3.46,5.38,8.44,9.51,14.93,12.38,6.49,2.88,14.23,4.31,23.22,4.31Z"/>
      <path class="cls-1" d="m1144.47,151.93l-15.48,3.76V27.64h55.29v165.87h-71.43l-82.27-127.83,15.48-3.76v131.59h-55.29V27.64h73.64l80.06,124.29Z"/>
      <path class="cls-1" d="m101.29,293.03c20.2,0,37.85,3.43,52.97,10.28,15.11,6.86,26.87,16.48,35.27,28.86,8.4,12.38,12.61,26.98,12.61,43.79s-4.2,31.22-12.61,43.68c-8.4,12.46-20.16,22.12-35.27,28.97-15.12,6.86-32.77,10.28-52.97,10.28H13.27v-165.87h88.02Zm-31.4,140.43l-25.65-25.43h61.48c8.11,0,15.07-1.29,20.9-3.87,5.82-2.58,10.28-6.26,13.38-11.06,3.1-4.79,4.64-10.5,4.64-17.14s-1.55-12.53-4.64-17.25c-3.1-4.72-7.56-8.37-13.38-10.95-5.83-2.58-12.79-3.87-20.9-3.87h-61.48l25.65-25.43v115Z"/>
      <path class="cls-1" d="m282.2,375.96l-10.17,61.7-21.67-23.88h125.84v45.12h-160.56l12.16-82.93-12.16-82.93h159.45v45.12h-124.73l21.67-23.88,10.17,61.7Zm85.81-19.68v39.37h-124.95v-39.37h124.95Z"/>
      <path class="cls-1" d="m394.1,404.27h57.94c.59,3.24,2.28,6.01,5.09,8.29,2.8,2.29,6.63,4.06,11.5,5.31,4.87,1.25,10.69,1.88,17.47,1.88,8.85,0,15.74-.88,20.68-2.65,4.94-1.77,7.41-4.64,7.41-8.63,0-2.65-1.4-4.9-4.2-6.75-2.8-1.84-8.55-3.06-17.25-3.65l-27.42-1.77c-24.92-1.62-42.9-6.93-53.96-15.92-11.06-8.99-16.59-20.86-16.59-35.61,0-12.38,3.54-22.7,10.62-30.96,7.08-8.25,16.99-14.45,29.75-18.58,12.75-4.13,27.68-6.19,44.78-6.19s31.44,2.32,44.34,6.97c12.9,4.64,23.14,11.17,30.74,19.57,7.59,8.4,11.76,18.21,12.5,29.41h-57.94c-.44-2.65-1.88-4.94-4.31-6.86-2.43-1.91-5.86-3.39-10.28-4.42-4.42-1.03-9.81-1.55-16.14-1.55-8.11,0-14.49.81-19.13,2.43-4.64,1.62-6.97,4.28-6.97,7.96,0,2.51,1.36,4.64,4.09,6.41,2.73,1.77,8,2.95,15.81,3.54l30.96,1.99c16.22,1.03,29.34,3.43,39.37,7.19,10.02,3.76,17.36,8.96,22,15.59,4.64,6.63,6.97,14.82,6.97,24.55,0,12.24-3.61,22.93-10.84,32.07-7.23,9.14-17.36,16.25-30.41,21.34-13.05,5.09-28.27,7.63-45.67,7.63s-33.76-2.43-47.33-7.3c-13.57-4.87-24.14-11.72-31.74-20.57-7.6-8.85-11.54-19.09-11.83-30.74Z"/>
      <path class="cls-1" d="m592.03,293.03h57.06v165.87h-57.06v-165.87Z"/>
      <path class="cls-1" d="m848.13,387.24c-.59,9.73-2.62,19.13-6.08,28.2-3.47,9.07-8.55,17.18-15.26,24.33-6.71,7.15-15.23,12.79-25.54,16.92-10.32,4.13-22.56,6.19-36.71,6.19-12.83,0-24.96-1.84-36.38-5.53-11.43-3.68-21.53-9.18-30.3-16.48-8.77-7.3-15.67-16.37-20.68-27.2-5.01-10.84-7.52-23.4-7.52-37.71s2.51-26.87,7.52-37.71c5.01-10.84,12.01-19.9,21.01-27.2,8.99-7.3,19.39-12.79,31.18-16.48,11.79-3.68,24.55-5.53,38.26-5.53,19.17,0,35.57,2.84,49.21,8.51,13.64,5.68,24.62,13.46,32.95,23.33,8.33,9.88,13.82,21.31,16.48,34.28h-57.28c-1.33-4.13-3.95-7.63-7.85-10.5-3.91-2.88-8.66-5.09-14.26-6.63-5.61-1.55-11.87-2.32-18.8-2.32-8.55,0-15.92,1.44-22.12,4.31s-10.95,7.26-14.26,13.16c-3.32,5.9-4.98,13.49-4.98,22.78s1.88,17.25,5.64,23.44c3.76,6.19,9.14,10.76,16.14,13.71,7,2.95,15.29,4.42,24.88,4.42s17.54-1.07,24.77-3.21c7.22-2.14,13.08-5.45,17.58-9.95,4.5-4.5,7.26-10.21,8.29-17.14h24.11Zm-71.21,22.12v-39.14h90.67v88.68h-39.59l-8.4-63.47,9.95,13.93h-52.63Z"/>
      <path class="cls-1" d="m1045.18,417.32l-15.48,3.76v-128.05h55.29v165.87h-71.43l-82.27-127.83,15.48-3.76v131.59h-55.29v-165.87h73.64l80.06,124.29Z"/>
      <path class="cls-1" d="m1173.67,375.96l-10.17,61.7-21.67-23.88h125.84v45.12h-160.56l12.16-82.93-12.16-82.93h159.45v45.12h-124.73l21.67-23.88,10.17,61.7Zm85.81-19.68v39.37h-124.95v-39.37h124.95Z"/>
      <path class="cls-1" d="m1330.46,364.02h55.73c5.6,0,9.95-1.33,13.05-3.98,3.1-2.65,4.64-6.49,4.64-11.5s-1.55-8.85-4.64-11.5c-3.1-2.65-7.45-3.98-13.05-3.98h-63.69l25.65-25.65v151.49h-57.06v-165.87h103.94c13.27,0,24.88,2.32,34.83,6.97s17.69,11.1,23.22,19.35c5.53,8.26,8.29,17.99,8.29,29.19s-2.76,20.53-8.29,28.86c-5.53,8.33-13.27,14.78-23.22,19.35-9.95,4.57-21.56,6.86-34.83,6.86h-64.58v-39.59Zm19.46,17.25h63.03l55.07,77.62h-65.24l-52.86-77.62Z"/>
    </g>
  </g>
</svg>